<?xml version="1.0" encoding="UTF-8" standalone="no"?>
<!-- Generator: Adobe Illustrator 19.0.0, SVG Export Plug-In . SVG Version: 6.00 Build 0)  -->

<svg
   version="1.1"
   id="Capa_1"
   x="0px"
   y="0px"
   viewBox="0 0 55 55"
   style="enable-background:new 0 0 55 55;"
   xml:space="preserve"
   sodipodi:docname="icon-white.svg"
   inkscape:version="1.1.2 (b8e25be8, 2022-02-05)"
   xmlns:inkscape="http://www.inkscape.org/namespaces/inkscape"
   xmlns:sodipodi="http://sodipodi.sourceforge.net/DTD/sodipodi-0.dtd"
   xmlns="http://www.w3.org/2000/svg"
   xmlns:svg="http://www.w3.org/2000/svg"><defs
   id="defs143" /><sodipodi:namedview
   id="namedview141"
   pagecolor="#ffffff"
   bordercolor="#666666"
   borderopacity="1.0"
   inkscape:pageshadow="2"
   inkscape:pageopacity="0.0"
   inkscape:pagecheckerboard="0"
   showgrid="false"
   inkscape:zoom="13.072727"
   inkscape:cx="34.078581"
   inkscape:cy="27.997218"
   inkscape:window-width="1728"
   inkscape:window-height="1080"
   inkscape:window-x="0"
   inkscape:window-y="37"
   inkscape:window-maximized="0"
   inkscape:current-layer="Capa_1" />
<path
   d="M49,0c-3.309,0-6,2.691-6,6c0,1.035,0.263,2.009,0.726,2.86l-9.829,9.829C32.542,17.634,30.846,17,29,17  s-3.542,0.634-4.898,1.688l-7.669-7.669C16.785,10.424,17,9.74,17,9c0-2.206-1.794-4-4-4S9,6.794,9,9s1.794,4,4,4  c0.74,0,1.424-0.215,2.019-0.567l7.669,7.669C21.634,21.458,21,23.154,21,25s0.634,3.542,1.688,4.897L10.024,42.562  C8.958,41.595,7.549,41,6,41c-3.309,0-6,2.691-6,6s2.691,6,6,6s6-2.691,6-6c0-1.035-0.263-2.009-0.726-2.86l12.829-12.829  c1.106,0.86,2.44,1.436,3.898,1.619v10.16c-2.833,0.478-5,2.942-5,5.91c0,3.309,2.691,6,6,6s6-2.691,6-6c0-2.967-2.167-5.431-5-5.91  v-10.16c1.458-0.183,2.792-0.759,3.898-1.619l7.669,7.669C41.215,39.576,41,40.26,41,41c0,2.206,1.794,4,4,4s4-1.794,4-4  s-1.794-4-4-4c-0.74,0-1.424,0.215-2.019,0.567l-7.669-7.669C36.366,28.542,37,26.846,37,25s-0.634-3.542-1.688-4.897l9.665-9.665  C46.042,11.405,47.451,12,49,12c3.309,0,6-2.691,6-6S52.309,0,49,0z"
   id="path108" />
<g
   id="g110">
</g>
<g
   id="g112">
</g>
<g
   id="g114">
</g>
<g
   id="g116">
</g>
<g
   id="g118">
</g>
<g
   id="g120">
</g>
<g
   id="g122">
</g>
<g
   id="g124">
</g>
<g
   id="g126">
</g>
<g
   id="g128">
</g>
<g
   id="g130">
</g>
<g
   id="g132">
</g>
<g
   id="g134">
</g>
<g
   id="g136">
</g>
<g
   id="g138">
</g>
<path
   style="fill:#209cee;stroke-width:0.0764951;fill-opacity:1"
   d="m 28.188456,54.91206 c -1.388298,-0.222046 -2.563381,-0.850455 -3.52452,-1.884838 -0.639145,-0.687851 -0.982177,-1.242771 -1.268633,-2.052265 -1.190057,-3.362959 0.78177,-6.892798 4.353847,-7.793983 l 0.325646,-0.08216 -0.01966,-5.096565 -0.01966,-5.096565 L 27.5,32.797751 C 26.435232,32.583122 25.443008,32.1715 24.601254,31.595213 l -0.483388,-0.330941 -6.43472,6.43671 -6.434718,6.436709 0.261576,0.646359 c 0.3453,0.853241 0.451837,1.528681 0.404574,2.564974 -0.115894,2.541133 -1.860183,4.687812 -4.3957577,5.409822 -0.8461434,0.240939 -2.1865276,0.239533 -3.0395264,-0.0032 C 2.3671553,52.154633 0.75455013,50.512776 0.22903832,48.428296 0.02087426,47.602598 0.02180126,46.40314 0.23123632,45.584201 1.1677848,41.922083 5.111176,40.026891 8.4841706,41.617846 c 0.311808,0.147072 0.7891139,0.425955 1.0606785,0.619739 l 0.4937559,0.352337 6.34831,-6.348311 6.348311,-6.348311 -0.305437,-0.450827 c -1.807514,-2.667907 -1.844441,-6.014042 -0.09644,-8.738415 l 0.409399,-0.638074 -3.817195,-3.817767 c -2.099457,-2.099772 -3.856934,-3.817768 -3.905504,-3.817768 -0.04857,0 -0.269484,0.08394 -0.490919,0.186531 -1.79675,0.832446 -4.115969,0.0029 -5.0254187,-1.797441 C 8.9047387,9.6337969 8.8977524,8.4446839 9.4827887,7.2578017 10.525537,5.1423445 13.148634,4.413043 15.122356,5.6898287 c 1.289232,0.833994 2.035708,2.4535348 1.787591,3.8783278 -0.04908,0.2818432 -0.186527,0.7270075 -0.305435,0.9892535 l -0.216196,0.476812 3.834983,3.834418 c 2.10924,2.108931 3.860594,3.83442 3.891895,3.83442 0.0313,0 0.223444,-0.119641 0.426982,-0.265868 1.301626,-0.935125 3.378894,-1.514987 4.946697,-1.380854 1.49298,0.127733 2.690125,0.535676 3.889445,1.32538 L 33.901977,18.726526 38.829003,13.7995 43.756029,8.8724745 43.521075,8.3132668 C 43.199702,7.5483759 43.069659,6.8727257 43.068087,5.9597329 c -0.0044,-2.5594736 1.611941,-4.7618466 4.12941,-5.62658285 0.685124,-0.23533657 0.787977,-0.24961866 1.797635,-0.24961866 1.008745,0 1.113131,0.01445891 1.797636,0.24899975 2.552719,0.87467056 4.130737,3.04160856 4.130737,5.67233676 0,2.7059831 -1.753246,4.9954621 -4.402799,5.7493981 -0.852999,0.242723 -2.193382,0.244129 -3.039527,0.0032 -0.733737,-0.208934 -1.502038,-0.589436 -2.025245,-1.003007 -0.21769,-0.172076 -0.422732,-0.312863 -0.455648,-0.312863 -0.03292,0 -2.236993,2.177347 -4.897947,4.838549 l -4.8381,4.83855 0.274351,0.382243 c 1.834786,2.55634 1.866991,6.221693 0.07793,8.869424 l -0.359259,0.531686 3.847378,3.848301 c 2.116058,2.116565 3.8818,3.832746 3.923873,3.813735 0.781846,-0.353285 1.128322,-0.450348 1.730021,-0.484655 1.21557,-0.06931 2.154085,0.292195 3.014345,1.161089 1.585623,1.601537 1.576805,3.956938 -0.02077,5.547305 -2.131084,2.121473 -5.663697,1.189696 -6.562869,-1.73105 -0.241132,-0.783262 -0.114866,-2.018226 0.287017,-2.807208 l 0.15201,-0.298428 -3.851338,-3.849412 -3.851339,-3.849411 -0.629702,0.410988 c -0.918085,0.599207 -2.474225,1.191367 -3.130796,1.191367 H 29.98609 v 5.127575 c 0,4.037696 0.02032,5.132902 0.09562,5.152638 0.701195,0.183795 1.492866,0.482705 1.892856,0.714683 0.613951,0.356067 1.783876,1.510366 2.131159,2.102693 0.804746,1.372577 1.05173,3.055432 0.665513,4.534539 -0.173874,0.665889 -0.740004,1.763119 -1.192043,2.310326 -0.729028,0.882511 -1.971719,1.675913 -3.095886,1.976582 -0.459296,0.122843 -1.862814,0.207467 -2.294854,0.138365 z"
   id="path219" /><path
   style="fill:#209cee;fill-opacity:1;stroke-width:0.0764951"
   d="M 27.691238,54.771758 C 26.468797,54.441182 25.609489,53.917445 24.687226,52.940854 23.618661,51.809343 23.119144,50.555733 23.115,48.995132 c -0.004,-1.513185 0.508426,-2.81494 1.539639,-3.911126 0.856394,-0.910351 1.586779,-1.373618 2.768866,-1.756227 l 0.650208,-0.210455 0.02261,-4.729733 c 0.01243,-2.601353 0.0018,-4.906672 -0.02358,-5.122932 l -0.04619,-0.393199 -0.703126,-0.163401 c -0.927657,-0.21558 -1.789958,-0.576942 -2.56857,-1.076401 l -0.634766,-0.407186 -6.457379,6.45661 c -4.586942,4.586397 -6.442955,6.489846 -6.407586,6.571352 0.02739,0.06311 0.172475,0.458971 0.322419,0.879694 0.260783,0.731723 0.27269,0.809809 0.274095,1.797636 0.0017,1.218568 -0.153051,1.882094 -0.669163,2.868567 -0.378755,0.723933 -1.4355638,1.835582 -2.1347293,2.245504 -1.9443043,1.139951 -4.1433454,1.139944 -6.0852572,-1.9e-5 C 2.7220706,51.90268 2.2132884,51.477399 1.8318673,51.098748 1.2263863,50.497665 1.0883743,50.308357 0.744397,49.607093 0.23467948,48.567936 0.07852053,47.82275 0.13598833,46.703785 0.26155749,44.258806 1.8110544,42.211626 4.149003,41.401831 c 0.9365373,-0.324389 2.2082278,-0.381577 3.1559256,-0.141925 0.7889861,0.199518 1.411528,0.48478 2.1595991,0.989573 l 0.5691663,0.384069 6.373836,-6.374179 6.373836,-6.374179 -0.269677,-0.40852 c -0.499085,-0.75604 -0.739618,-1.245842 -1.008275,-2.053165 -0.486541,-1.462075 -0.539163,-2.839847 -0.164825,-4.31553 0.20873,-0.822836 0.499986,-1.490002 1.042747,-2.388572 l 0.396551,-0.65651 -3.733013,-3.733596 c -2.053156,-2.053477 -3.811333,-3.775512 -3.907058,-3.826742 -0.146901,-0.07862 -0.261243,-0.06048 -0.733122,0.116309 -2.335207,0.87488 -4.861569,-0.597786 -5.270193,-3.0720979 -0.2533496,-1.5340907 0.6859525,-3.2969852 2.145838,-4.027336 1.933657,-0.9673695 4.231485,-0.162586 5.2082,1.8241026 0.535681,1.0896051 0.558668,2.0353228 0.07743,3.1856333 l -0.212651,0.508305 3.833358,3.832794 c 2.108347,2.108038 3.878663,3.832795 3.934037,3.832795 0.05537,0 0.249399,-0.102322 0.431168,-0.227383 1.232061,-0.84768 2.948702,-1.379015 4.455332,-1.379015 1.442065,0 2.9166,0.432722 4.165739,1.222493 l 0.714392,0.451676 4.953677,-4.948698 C 42.356022,10.310666 43.780233,8.840111 43.744888,8.7586926 43.388437,7.9375878 43.169276,7.0864054 43.129509,6.3686828 42.981115,3.690384 44.482719,1.4471225 47.121001,0.4057502 c 0.55526,-0.2191698 0.708026,-0.24460814 1.648759,-0.27454772 1.224794,-0.0389801 1.658132,0.0484016 2.707436,0.54594933 0.707727,0.33558229 1.410792,0.84003509 1.865232,1.33831489 1.050729,1.1520922 1.621361,2.7823528 1.516881,4.3336293 -0.06185,0.9182992 -0.210507,1.462873 -0.636103,2.3302207 -0.297958,0.607226 -0.467317,0.8365821 -1.051358,1.4238123 -0.777762,0.782009 -1.444811,1.200028 -2.455575,1.538833 -0.543379,0.182138 -0.731982,0.205668 -1.682893,0.209955 -0.918988,0.0041 -1.152057,-0.02064 -1.642716,-0.17471 -0.709207,-0.222689 -1.203094,-0.46797 -1.813272,-0.900534 -0.259974,-0.184298 -0.518247,-0.335087 -0.57394,-0.335087 -0.05569,0 -2.281223,2.180164 -4.94562,4.84481 l -4.84436,4.844809 0.353648,0.505897 c 1.766485,2.52698 1.752154,6.143382 -0.03477,8.774748 l -0.32495,0.47851 3.47071,3.475969 c 1.90889,1.911783 3.667817,3.648549 3.908726,3.859481 l 0.438015,0.383512 0.518174,-0.211116 c 0.687481,-0.280094 1.784941,-0.3434 2.517157,-0.145199 1.527631,0.413511 2.858457,2.146586 2.858457,3.722443 0,1.676918 -1.323773,3.371547 -2.977747,3.811966 -0.530349,0.14122 -1.500063,0.108203 -2.076449,-0.0707 C 43.286936,44.537465 42.580402,44.099382 42.175337,43.669395 41.0846,42.51155 40.825721,40.973051 41.458478,39.409167 l 0.191439,-0.473145 -3.842756,-3.84388 c -2.113515,-2.114134 -3.871103,-3.843881 -3.905751,-3.843881 -0.03465,0 -0.208958,0.100425 -0.387357,0.223166 -0.408623,0.28114 -1.406088,0.785882 -1.969834,0.996783 -0.361675,0.135306 -1.341724,0.380554 -1.539003,0.385121 -0.069,0.0016 -0.07784,9.191935 -0.0095,9.84603 l 0.0479,0.458242 0.544941,0.172339 c 1.037333,0.328057 1.579565,0.641448 2.326633,1.344706 0.847832,0.798114 1.368338,1.551838 1.640645,2.375754 0.563209,1.704093 0.479784,2.951768 -0.303809,4.543676 -0.36463,0.740765 -0.522364,0.968306 -1.010355,1.457498 -0.975282,0.977685 -2.147533,1.615609 -3.226135,1.755623 -0.793986,0.103068 -1.872962,0.08662 -2.324318,-0.03544 z"
   id="path1295" /><path
   style="fill:#ffffff;fill-opacity:1;stroke-width:0.0764951;opacity:1"
   d="M 27.691238,54.771758 C 26.468797,54.441182 25.609489,53.917445 24.687226,52.940854 23.618661,51.809343 23.119144,50.555733 23.115,48.995132 c -0.004,-1.51867 0.500892,-2.806931 1.528149,-3.898912 0.868186,-0.922887 1.593715,-1.384358 2.780356,-1.76844 l 0.650208,-0.210454 0.02301,-4.576744 c 0.01266,-2.517209 0.0015,-4.822665 -0.02489,-5.123236 l -0.0479,-0.546493 -0.701812,-0.163097 c -0.926399,-0.21529 -1.788972,-0.576849 -2.567253,-1.076096 l -0.634762,-0.407182 -6.193937,6.188873 c -3.406665,3.403881 -6.300131,6.320778 -6.429923,6.481994 l -0.235987,0.293118 0.296081,0.854309 c 0.286984,0.828063 0.296078,0.886031 0.29603,1.886992 -5.7e-5,1.219177 -0.155748,1.885868 -0.669886,2.868567 -0.378755,0.723933 -1.4355638,1.835582 -2.1347293,2.245504 -1.9443043,1.139951 -4.1433454,1.139944 -6.0852572,-1.9e-5 C 2.7220706,51.90268 2.2108634,51.476027 1.8264784,51.095698 1.2104785,50.486199 1.0815927,50.309301 0.73967863,49.604043 0.23565515,48.564406 0.07906642,47.81212 0.13598833,46.703785 0.26152389,44.25946 1.8057374,42.218487 4.149003,41.39982 c 0.9278675,-0.324168 2.2050541,-0.380369 3.1594386,-0.139026 0.7849293,0.198492 1.4541913,0.505275 2.1772837,0.998044 l 0.5487317,0.373946 6.373454,-6.373797 6.373455,-6.373797 -0.269677,-0.40852 c -0.499085,-0.75604 -0.739618,-1.245842 -1.008275,-2.053165 -0.487645,-1.465392 -0.541379,-2.831113 -0.169124,-4.298581 0.212887,-0.839227 0.501568,-1.502453 1.047039,-2.405509 l 0.396544,-0.656499 -3.509938,-3.515195 c -1.930466,-1.933357 -3.677479,-3.657242 -3.882253,-3.830855 l -0.372314,-0.315661 -0.617334,0.219345 c -0.777671,0.276314 -1.586693,0.335597 -2.252407,0.165048 C 10.9613,12.482701 9.9611242,11.67826 9.4846437,10.646981 8.9448428,9.4786518 8.9622829,8.4451972 9.5413227,7.2883098 10.998508,4.3769425 15.017615,4.3924843 16.480452,7.3151432 c 0.544228,1.0873345 0.570133,2.0608996 0.08556,3.2155268 l -0.213956,0.509807 3.838388,3.831292 c 2.111113,2.10721 3.881714,3.831291 3.934668,3.831291 0.05296,0 0.245001,-0.102322 0.42677,-0.227383 1.228769,-0.845415 2.948928,-1.379015 4.445512,-1.379015 1.459683,0 2.919123,0.427545 4.175559,1.223237 l 0.714392,0.452418 4.949591,-4.949471 4.949592,-4.9494711 -0.260214,-0.6927659 c -1.210861,-3.2236766 0.290337,-6.4705783 3.594688,-7.7748588 0.55526,-0.2191698 0.708026,-0.24460814 1.648759,-0.27454772 0.792635,-0.0252263 1.150742,-0.003805 1.520649,0.0909603 0.571882,0.14650938 1.609745,0.6201832 2.104052,0.96027512 1.624772,1.1178724 2.599876,3.1618249 2.464848,5.1666581 -0.06185,0.9182992 -0.210507,1.462873 -0.636103,2.3302207 -0.297958,0.607226 -0.467317,0.8365821 -1.051358,1.4238123 -0.777762,0.782009 -1.444811,1.200028 -2.455575,1.538833 -0.543379,0.182138 -0.731982,0.205668 -1.682893,0.209955 -0.918988,0.0041 -1.152057,-0.02064 -1.642716,-0.17471 -0.713038,-0.223891 -1.203355,-0.468139 -1.825945,-0.909576 -0.426376,-0.302316 -0.505831,-0.33317 -0.653901,-0.253925 -0.0927,0.04961 -2.309922,2.230976 -4.927152,4.847473 l -4.758602,4.757267 0.357126,0.532349 c 1.755573,2.616945 1.735577,6.131908 -0.04984,8.761051 l -0.324947,0.478505 3.394211,3.39948 c 1.866817,1.869714 3.625647,3.60652 3.908512,3.85957 l 0.514299,0.46009 0.518386,-0.2112 c 0.6877,-0.280183 1.785048,-0.343514 2.517368,-0.145284 1.527631,0.413511 2.858457,2.146586 2.858457,3.722443 0,1.676918 -1.323773,3.371547 -2.977747,3.811966 -0.530349,0.14122 -1.500063,0.108203 -2.076449,-0.0707 C 43.286936,44.537465 42.580402,44.099382 42.175337,43.669395 41.0846,42.51155 40.825721,40.973051 41.458478,39.409167 l 0.191439,-0.473145 -3.842756,-3.84388 c -2.113515,-2.114134 -3.871103,-3.843881 -3.905751,-3.843881 -0.03465,0 -0.210427,0.101435 -0.390619,0.225411 -0.748478,0.514966 -2.59169,1.302573 -3.055307,1.305536 -0.08988,6.12e-4 -0.240863,0.0218 -0.335526,0.04717 l -0.172114,0.04613 5.36e-4,4.638157 c 3.06e-4,2.550987 0.02199,4.865179 0.0482,5.142649 l 0.04766,0.504492 0.544635,0.17224 c 1.037009,0.327952 1.579315,0.641403 2.326325,1.344607 0.847833,0.798114 1.368338,1.551838 1.640646,2.375754 0.563208,1.704093 0.479783,2.951768 -0.303809,4.543676 -0.36463,0.740765 -0.522365,0.968306 -1.010355,1.457498 -0.975283,0.977685 -2.147533,1.615609 -3.226135,1.755623 -0.793987,0.103068 -1.872963,0.08662 -2.324319,-0.03544 z"
   id="path1334" /><path
   style="opacity:1;fill:#ffffff;fill-opacity:1;stroke-width:0.0764951"
   d="m 27.270515,54.594751 c -0.99527,-0.350508 -1.600507,-0.742524 -2.408,-1.559681 C 24.200074,52.3647 23.718566,51.609293 23.43324,50.792768 23.236226,50.22897 23.219273,50.0905 23.217834,49.03338 c -0.0014,-1.062037 0.01496,-1.197835 0.220444,-1.824781 0.351407,-1.07217 1.071435,-2.052865 2.107125,-2.869957 0.516324,-0.407345 1.080726,-0.694816 1.888739,-0.962007 0.57099,-0.188813 0.62647,-0.225247 0.669332,-0.439552 0.06216,-0.310808 0.04554,-9.163114 -0.0182,-9.694199 l -0.04981,-0.414974 -0.458971,-0.10275 c -1.049737,-0.235005 -2.074832,-0.668291 -3.021558,-1.277151 l -0.420723,-0.270576 -6.362232,6.359228 c -3.499227,3.497575 -6.402295,6.434084 -6.451259,6.525576 -0.07395,0.138168 -0.04256,0.302339 0.185249,0.969063 0.26347,0.771084 0.274234,0.844648 0.273148,1.866931 -0.0013,1.182747 -0.0956,1.7119 -0.442093,2.479524 -0.489634,1.08475 -1.673107,2.316363 -2.7202573,2.830907 C 6.9146106,53.045061 5.0949394,53.044973 3.3924583,52.208433 2.912499,51.97259 2.5927302,51.734511 2.0037431,51.174482 1.357488,50.559978 1.1851271,50.343 0.89474115,49.778388 0.25148058,48.527663 0.04721961,47.45627 0.22292879,46.254588 0.42123034,44.898396 0.96569765,43.805217 1.9091585,42.868986 c 0.6228627,-0.61809 1.1957098,-0.995406 1.9993742,-1.316922 0.7397527,-0.295948 1.1692045,-0.374658 2.0580876,-0.377207 1.2386597,-0.0036 2.1233006,0.26876 3.3288387,1.024692 l 0.743692,0.466332 6.390398,-6.390398 6.390397,-6.390398 -0.347582,-0.561457 c -0.943704,-1.524387 -1.322942,-2.807375 -1.307827,-4.424462 0.01403,-1.500534 0.358192,-2.618795 1.302982,-4.23364 l 0.35111,-0.60012 -3.625935,-3.631179 C 17.19843,14.437079 15.44204,12.702571 15.289605,12.579763 l -0.277154,-0.223286 -0.564292,0.197044 c -0.816956,0.28527 -1.790222,0.331792 -2.490623,0.119052 C 10.145187,12.122089 8.8830209,10.225222 9.1829721,8.5027751 9.4482381,6.9795019 10.631129,5.6504217 12.050658,5.2806815 c 1.758651,-0.4580705 3.555182,0.4032426 4.382481,2.1010988 0.534186,1.0963029 0.559419,1.9135203 0.09594,3.1071287 l -0.215562,0.555141 3.842738,3.829504 c 2.373614,2.365442 3.898353,3.829506 3.98821,3.829506 0.08001,0 0.269444,-0.08424 0.420964,-0.187201 0.788201,-0.535597 2.154238,-1.076156 3.197693,-1.265371 0.614474,-0.111425 1.917997,-0.111623 2.531443,-3.82e-4 1.017117,0.184438 2.116363,0.633112 3.116169,1.27191 0.221697,0.141647 0.428333,0.25754 0.459192,0.25754 0.03086,0 2.283639,-2.228876 5.006179,-4.953059 L 43.826177,8.8734369 43.5921,8.2232282 c -0.580503,-1.6124877 -0.579507,-3.0487903 0.0031,-4.4421417 0.592858,-1.4179134 1.841116,-2.6165649 3.427109,-3.29091335 0.572412,-0.24338338 0.6428,-0.2545834 1.783601,-0.28379995 1.126766,-0.0288572 1.218894,-0.0199353 1.796563,0.17398166 1.894061,0.63581494 3.18908,1.83692164 3.835194,3.55706924 0.465604,1.2395767 0.509205,2.6857873 0.115465,3.8298105 -0.342762,0.9959039 -0.687996,1.5354639 -1.497385,2.3402344 -0.675161,0.671309 -0.876238,0.821984 -1.502111,1.125585 -0.930111,0.451182 -1.509217,0.583184 -2.558485,0.583184 -1.307982,0 -2.173016,-0.267679 -3.292944,-1.018981 -0.2916,-0.19562 -0.597267,-0.355671 -0.679263,-0.355671 -0.09514,0 -1.905106,1.753523 -5.002439,4.846448 l -4.853357,4.846449 0.32596,0.479997 c 1.766622,2.601465 1.790405,5.96684 0.06122,8.66249 l -0.392562,0.61197 3.897593,3.889088 3.897592,3.889088 0.672712,-0.231873 c 0.569076,-0.196153 0.786713,-0.231777 1.412704,-0.231243 1.134161,9.72e-4 1.817905,0.293915 2.645639,1.133509 1.2785,1.29682 1.525581,3.110678 0.619484,4.547744 -0.398534,0.632074 -1.084337,1.269766 -1.682211,1.5642 -0.718192,0.353685 -1.31758,0.453565 -2.094464,0.349012 -1.440013,-0.193795 -2.605978,-1.123245 -3.157355,-2.516887 -0.142655,-0.36057 -0.173018,-0.581847 -0.170414,-1.24194 0.0028,-0.705262 0.03232,-0.88248 0.242207,-1.453407 l 0.239037,-0.650209 -3.840808,-3.84388 c -2.112443,-2.114134 -3.888066,-3.843881 -3.945827,-3.843881 -0.05776,0 -0.298848,0.116647 -0.53575,0.259215 -0.999976,0.601789 -2.144383,1.083615 -2.908805,1.224686 l -0.505235,0.09324 -0.02343,4.317481 c -0.01289,2.374613 -0.0011,4.701537 0.02623,5.17094 l 0.04965,0.853461 0.700479,0.243106 c 0.887264,0.30793 1.338308,0.565957 1.96475,1.123971 1.530325,1.363163 2.15637,2.64954 2.170934,4.460772 0.0084,1.038235 -0.140699,1.614005 -0.702979,2.715577 -0.60605,1.187325 -1.841922,2.274152 -3.191198,2.806344 -0.581166,0.229229 -0.673551,0.242679 -1.835883,0.267295 -1.179802,0.02499 -1.245983,0.01815 -1.835883,-0.189597 z"
   id="path14024" /></svg>
